{
	"patcher" : 	{
		"fileversion" : 1,
		"appversion" : 		{
			"major" : 6,
			"minor" : 1,
			"revision" : 9,
			"architecture" : "x86"
		}
,
		"rect" : [ 1259.0, 270.0, 509.0, 331.0 ],
		"bglocked" : 0,
		"openinpresentation" : 1,
		"default_fontsize" : 12.0,
		"default_fontface" : 0,
		"default_fontname" : "Arial",
		"gridonopen" : 0,
		"gridsize" : [ 15.0, 15.0 ],
		"gridsnaponopen" : 0,
		"statusbarvisible" : 2,
		"toolbarvisible" : 1,
		"boxanimatetime" : 200,
		"imprint" : 0,
		"enablehscroll" : 1,
		"enablevscroll" : 1,
		"devicewidth" : 0.0,
		"description" : "",
		"digest" : "",
		"tags" : "",
		"boxes" : [ 			{
				"box" : 				{
					"annotation" : "none",
					"args" : [ "#1", "#1_view" ],
					"id" : "obj-12",
					"maxclass" : "bpatcher",
					"name" : "echo-4ch~.view.maxpat",
					"numinlets" : 1,
					"numoutlets" : 1,
					"outlettype" : [ "" ],
					"patching_rect" : [ 0.0, 0.0, 300.0, 140.0 ],
					"presentation" : 1,
					"presentation_rect" : [ 0.0, 0.0, 300.0, 140.0 ]
				}

			}
, 			{
				"box" : 				{
					"comment" : "",
					"id" : "obj-11",
					"maxclass" : "outlet",
					"numinlets" : 1,
					"numoutlets" : 0,
					"patching_rect" : [ 182.0, 281.0, 25.0, 25.0 ]
				}

			}
, 			{
				"box" : 				{
					"comment" : "",
					"id" : "obj-9",
					"maxclass" : "outlet",
					"numinlets" : 1,
					"numoutlets" : 0,
					"patching_rect" : [ 129.0, 278.0, 25.0, 25.0 ]
				}

			}
, 			{
				"box" : 				{
					"comment" : "",
					"id" : "obj-8",
					"maxclass" : "outlet",
					"numinlets" : 1,
					"numoutlets" : 0,
					"patching_rect" : [ 90.0, 278.0, 25.0, 25.0 ]
				}

			}
, 			{
				"box" : 				{
					"comment" : "",
					"id" : "obj-7",
					"maxclass" : "outlet",
					"numinlets" : 1,
					"numoutlets" : 0,
					"patching_rect" : [ 51.0, 278.0, 25.0, 25.0 ]
				}

			}
, 			{
				"box" : 				{
					"comment" : "",
					"id" : "obj-6",
					"maxclass" : "outlet",
					"numinlets" : 1,
					"numoutlets" : 0,
					"patching_rect" : [ 12.0, 278.0, 25.0, 25.0 ]
				}

			}
, 			{
				"box" : 				{
					"comment" : "",
					"id" : "obj-5",
					"maxclass" : "inlet",
					"numinlets" : 0,
					"numoutlets" : 1,
					"outlettype" : [ "" ],
					"patching_rect" : [ 171.0, 151.0, 25.0, 25.0 ]
				}

			}
, 			{
				"box" : 				{
					"comment" : "",
					"id" : "obj-4",
					"maxclass" : "inlet",
					"numinlets" : 0,
					"numoutlets" : 1,
					"outlettype" : [ "" ],
					"patching_rect" : [ 129.0, 151.0, 25.0, 25.0 ]
				}

			}
, 			{
				"box" : 				{
					"comment" : "",
					"id" : "obj-3",
					"maxclass" : "inlet",
					"numinlets" : 0,
					"numoutlets" : 1,
					"outlettype" : [ "" ],
					"patching_rect" : [ 87.0, 151.0, 25.0, 25.0 ]
				}

			}
, 			{
				"box" : 				{
					"comment" : "",
					"id" : "obj-2",
					"maxclass" : "inlet",
					"numinlets" : 0,
					"numoutlets" : 1,
					"outlettype" : [ "" ],
					"patching_rect" : [ 45.0, 151.0, 25.0, 25.0 ]
				}

			}
, 			{
				"box" : 				{
					"annotation" : "Stereo echo module.",
					"fontname" : "Arial",
					"fontsize" : 12.0,
					"id" : "obj-1",
					"maxclass" : "newobj",
					"numinlets" : 4,
					"numoutlets" : 5,
					"outlettype" : [ "signal", "signal", "signal", "signal", "" ],
					"patching_rect" : [ 45.0, 207.0, 130.0, 20.0 ],
					"text" : "echo-4ch~.model #1"
				}

			}
 ],
		"lines" : [ 			{
				"patchline" : 				{
					"destination" : [ "obj-11", 0 ],
					"disabled" : 0,
					"hidden" : 0,
					"source" : [ "obj-1", 4 ]
				}

			}
, 			{
				"patchline" : 				{
					"destination" : [ "obj-6", 0 ],
					"disabled" : 0,
					"hidden" : 0,
					"source" : [ "obj-1", 0 ]
				}

			}
, 			{
				"patchline" : 				{
					"destination" : [ "obj-7", 0 ],
					"disabled" : 0,
					"hidden" : 0,
					"source" : [ "obj-1", 1 ]
				}

			}
, 			{
				"patchline" : 				{
					"destination" : [ "obj-8", 0 ],
					"disabled" : 0,
					"hidden" : 0,
					"source" : [ "obj-1", 2 ]
				}

			}
, 			{
				"patchline" : 				{
					"destination" : [ "obj-9", 0 ],
					"disabled" : 0,
					"hidden" : 0,
					"source" : [ "obj-1", 3 ]
				}

			}
, 			{
				"patchline" : 				{
					"destination" : [ "obj-1", 0 ],
					"disabled" : 0,
					"hidden" : 0,
					"source" : [ "obj-2", 0 ]
				}

			}
, 			{
				"patchline" : 				{
					"destination" : [ "obj-1", 1 ],
					"disabled" : 0,
					"hidden" : 0,
					"source" : [ "obj-3", 0 ]
				}

			}
, 			{
				"patchline" : 				{
					"destination" : [ "obj-1", 2 ],
					"disabled" : 0,
					"hidden" : 0,
					"source" : [ "obj-4", 0 ]
				}

			}
, 			{
				"patchline" : 				{
					"destination" : [ "obj-1", 3 ],
					"disabled" : 0,
					"hidden" : 0,
					"source" : [ "obj-5", 0 ]
				}

			}
 ],
		"parameters" : 		{
			"obj-12::obj-3::obj-30" : [ "live.menu", "live.menu", 0 ],
			"obj-12::obj-31" : [ "live.dial[28]", "Delay 4", 0 ],
			"obj-12::obj-21" : [ "live.menu[5]", "live.menu[2]", 0 ],
			"obj-12::obj-3::obj-15" : [ "Postamp", "Postamp", 0 ],
			"obj-12::obj-23" : [ "live.dial[29]", "Delay 1", 0 ],
			"obj-12::obj-3::obj-45" : [ "live.text[2]", "live.text", 0 ],
			"obj-12::obj-3::obj-27" : [ "Threshold", "Threshold", 0 ],
			"obj-12::obj-3::obj-42" : [ "live.text[1]", "live.text", 0 ],
			"obj-12::obj-3::obj-5" : [ "Preamp", "Preamp", 0 ],
			"obj-12::obj-3::obj-6" : [ "live.text", "live.text", 0 ],
			"obj-12::obj-32" : [ "live.dial[26]", "Delay 3", 0 ],
			"obj-12::obj-25" : [ "Feedback[1]", "Feedback", 0 ],
			"obj-12::obj-17" : [ "live.menu[4]", "live.menu[1]", 0 ],
			"obj-12::obj-3::obj-12" : [ "Lookahead", "Lookahead", 0 ],
			"obj-12::obj-18" : [ "live.text[15]", "live.text[3]", 0 ],
			"obj-12::obj-24" : [ "live.dial[27]", "Delay 2", 0 ],
			"obj-12::obj-3::obj-13" : [ "Release", "Release", 0 ]
		}
,
		"dependency_cache" : [ 			{
				"name" : "echo-4ch~.model.maxpat",
				"bootpath" : "/Users/LaFabrika/lib-src/InteracSon",
				"patcherrelativepath" : ".",
				"type" : "JSON",
				"implicit" : 1
			}
, 			{
				"name" : "limiter~.model.maxpat",
				"bootpath" : "/Users/LaFabrika/Documents/Max/Packages/Jamoma/patchers/modules/audio/stereo/Dynamics/limiter~",
				"patcherrelativepath" : "../../Documents/Max/Packages/Jamoma/patchers/modules/audio/stereo/Dynamics/limiter~",
				"type" : "JSON",
				"implicit" : 1
			}
, 			{
				"name" : "limiter.parametersAndMessages.maxpat",
				"bootpath" : "/Users/LaFabrika/Documents/Max/Packages/Jamoma/patchers/modules/audio/stereo/Dynamics/limiter~",
				"patcherrelativepath" : "../../Documents/Max/Packages/Jamoma/patchers/modules/audio/stereo/Dynamics/limiter~",
				"type" : "JSON",
				"implicit" : 1
			}
, 			{
				"name" : "filter~.model.maxpat",
				"bootpath" : "/Users/LaFabrika/Documents/Max/Packages/Jamoma/patchers/modules/audio/stereo/EQ/filter~",
				"patcherrelativepath" : "../../Documents/Max/Packages/Jamoma/patchers/modules/audio/stereo/EQ/filter~",
				"type" : "JSON",
				"implicit" : 1
			}
, 			{
				"name" : "j.octavebandwidth2q.maxpat",
				"bootpath" : "/Users/LaFabrika/Documents/Max/Packages/Jamoma/patchers/components/audio/octavebandwidth2q",
				"patcherrelativepath" : "../../Documents/Max/Packages/Jamoma/patchers/components/audio/octavebandwidth2q",
				"type" : "JSON",
				"implicit" : 1
			}
, 			{
				"name" : "j.q2octavebandwidth.maxpat",
				"bootpath" : "/Users/LaFabrika/Documents/Max/Packages/Jamoma/patchers/components/audio/q2octavebandwith",
				"patcherrelativepath" : "../../Documents/Max/Packages/Jamoma/patchers/components/audio/q2octavebandwith",
				"type" : "JSON",
				"implicit" : 1
			}
, 			{
				"name" : "echo-4ch~.view.maxpat",
				"bootpath" : "/Users/LaFabrika/lib-src/InteracSon",
				"patcherrelativepath" : ".",
				"type" : "JSON",
				"implicit" : 1
			}
, 			{
				"name" : "limiter~.view.maxpat",
				"bootpath" : "/Users/LaFabrika/Documents/Max/Packages/Jamoma/patchers/modules/audio/stereo/Dynamics/limiter~",
				"patcherrelativepath" : "../../Documents/Max/Packages/Jamoma/patchers/modules/audio/stereo/Dynamics/limiter~",
				"type" : "JSON",
				"implicit" : 1
			}
, 			{
				"name" : "j.parameter.mxo",
				"type" : "iLaX"
			}
, 			{
				"name" : "j.message.mxo",
				"type" : "iLaX"
			}
, 			{
				"name" : "j.model.mxo",
				"type" : "iLaX"
			}
, 			{
				"name" : "j.in~.mxo",
				"type" : "iLaX"
			}
, 			{
				"name" : "j.out~.mxo",
				"type" : "iLaX"
			}
, 			{
				"name" : "j.limiter~.mxo",
				"type" : "iLaX"
			}
, 			{
				"name" : "j.unit.mxo",
				"type" : "iLaX"
			}
, 			{
				"name" : "j.ui.mxo",
				"type" : "iLaX"
			}
, 			{
				"name" : "j.remote.mxo",
				"type" : "iLaX"
			}
, 			{
				"name" : "j.view.mxo",
				"type" : "iLaX"
			}
, 			{
				"name" : "j.remote_array.mxo",
				"type" : "iLaX"
			}
, 			{
				"name" : "j.receive~.mxo",
				"type" : "iLaX"
			}
 ]
	}

}
