{
	"patcher" : 	{
		"fileversion" : 1,
		"appversion" : 		{
			"major" : 6,
			"minor" : 1,
			"revision" : 10,
			"architecture" : "x86"
		}
,
		"rect" : [ 481.0, 111.0, 1056.0, 480.0 ],
		"bgcolor" : [ 1.0, 1.0, 1.0, 0.0 ],
		"bglocked" : 0,
		"openinpresentation" : 1,
		"default_fontsize" : 12.0,
		"default_fontface" : 0,
		"default_fontname" : "Arial",
		"gridonopen" : 0,
		"gridsize" : [ 15.0, 15.0 ],
		"gridsnaponopen" : 0,
		"statusbarvisible" : 2,
		"toolbarvisible" : 1,
		"boxanimatetime" : 200,
		"imprint" : 0,
		"enablehscroll" : 1,
		"enablevscroll" : 1,
		"devicewidth" : 0.0,
		"description" : "",
		"digest" : "",
		"tags" : "",
		"boxes" : [ 			{
				"box" : 				{
					"fontname" : "Arial",
					"fontsize" : 12.0,
					"id" : "obj-14",
					"maxclass" : "message",
					"numinlets" : 2,
					"numoutlets" : 1,
					"outlettype" : [ "" ],
					"patching_rect" : [ 551.0, 136.0, 70.0, 18.0 ],
					"text" : "getaddress"
				}

			}
, 			{
				"box" : 				{
					"fontname" : "Arial",
					"fontsize" : 12.0,
					"id" : "obj-10",
					"maxclass" : "message",
					"numinlets" : 2,
					"numoutlets" : 1,
					"outlettype" : [ "" ],
					"patching_rect" : [ 618.5, 228.0, 120.0, 18.0 ],
					"text" : "address /lfo.1_view"
				}

			}
, 			{
				"box" : 				{
					"fontname" : "Arial",
					"fontsize" : 12.0,
					"id" : "obj-1",
					"maxclass" : "newobj",
					"numinlets" : 1,
					"numoutlets" : 2,
					"outlettype" : [ "", "" ],
					"patching_rect" : [ 551.0, 169.0, 41.0, 20.0 ],
					"text" : "j.view"
				}

			}
, 			{
				"box" : 				{
					"annotation" : "none",
					"fontname" : "Arial",
					"fontsize" : 12.0,
					"id" : "obj-11",
					"maxclass" : "flonum",
					"numinlets" : 1,
					"numoutlets" : 2,
					"outlettype" : [ "float", "bang" ],
					"parameter_enable" : 0,
					"patching_rect" : [ 216.0, 212.0, 50.0, 20.0 ],
					"presentation" : 1,
					"presentation_rect" : [ 66.5, 47.5, 50.0, 20.0 ]
				}

			}
, 			{
				"box" : 				{
					"annotation" : "none",
					"id" : "obj-9",
					"maxclass" : "toggle",
					"numinlets" : 1,
					"numoutlets" : 1,
					"outlettype" : [ "int" ],
					"parameter_enable" : 0,
					"patching_rect" : [ 246.0, 180.0, 20.0, 20.0 ],
					"presentation" : 1,
					"presentation_rect" : [ 96.5, 26.0, 20.0, 20.0 ]
				}

			}
, 			{
				"box" : 				{
					"fontname" : "Arial",
					"fontsize" : 12.0,
					"id" : "obj-7",
					"maxclass" : "newobj",
					"numinlets" : 1,
					"numoutlets" : 4,
					"outlettype" : [ "", "", "", "" ],
					"patching_rect" : [ 274.0, 180.0, 89.0, 20.0 ],
					"text" : "j.remote active"
				}

			}
, 			{
				"box" : 				{
					"fontname" : "Arial",
					"fontsize" : 12.0,
					"id" : "obj-6",
					"maxclass" : "newobj",
					"numinlets" : 1,
					"numoutlets" : 4,
					"outlettype" : [ "", "", "", "" ],
					"patching_rect" : [ 274.0, 212.0, 78.0, 20.0 ],
					"text" : "j.remote rate"
				}

			}
, 			{
				"box" : 				{
					"fontname" : "Arial",
					"fontsize" : 12.0,
					"id" : "obj-3",
					"maxclass" : "newobj",
					"numinlets" : 1,
					"numoutlets" : 4,
					"outlettype" : [ "", "", "", "" ],
					"patching_rect" : [ 180.0, 280.0, 70.0, 20.0 ],
					"text" : "j.remote lfo"
				}

			}
, 			{
				"box" : 				{
					"annotation" : "none",
					"id" : "obj-2",
					"maxclass" : "multislider",
					"numinlets" : 1,
					"numoutlets" : 2,
					"outlettype" : [ "", "" ],
					"parameter_enable" : 0,
					"patching_rect" : [ 180.0, 307.0, 172.0, 63.0 ],
					"presentation" : 1,
					"presentation_rect" : [ 120.0, 26.0, 172.0, 63.0 ],
					"setminmax" : [ -0.5, 1.5 ],
					"setstyle" : 4
				}

			}
, 			{
				"box" : 				{
					"fontname" : "Arial",
					"fontsize" : 12.0,
					"id" : "obj-34",
					"maxclass" : "newobj",
					"numinlets" : 1,
					"numoutlets" : 4,
					"outlettype" : [ "", "", "", "" ],
					"patching_rect" : [ 638.5, 331.5, 191.0, 20.0 ],
					"text" : "j.remote lfo:ramp/function function"
				}

			}
, 			{
				"box" : 				{
					"fontname" : "Arial",
					"fontsize" : 12.0,
					"id" : "obj-33",
					"items" : [ "linear", ",", "-", ",", "easeInBack", ",", "easeInOutBack", ",", "easeOutBack", ",", "easeInBounce", ",", "easeInOutBounce", ",", "easeOutBounce", ",", "easeInCircular", ",", "easeInOutCircular", ",", "easeOutCircular", ",", "easeInCubic", ",", "easeInOutCubic", ",", "easeOutCubic", ",", "easeInElastic", ",", "easeInOutElastic", ",", "easeOutElastic", ",", "easeInExponential", ",", "easeInOutExponential", ",", "easeOutExponential", ",", "easeInQuadratic", ",", "easeInOutQuadratic", ",", "easeOutQuadratic", ",", "easeInQuartic", ",", "easeInOutQuartic", ",", "easeOutQuartic", ",", "easeInQuintic", ",", "easeInOutQuintic", ",", "easeOutQuintic", ",", "easeInSine", ",", "easeInOutSine", ",", "easeOutSine", ",", "-", ",", "exponential", ",", "freehand", ",", "logarithm", ",", "lowpass", ",", "power", ",", "smoothPolynomial", ",", "tanh", ",", "-", ",", "bartlett", ",", "blackman", ",", "blackmanHarris", ",", "expodec", ",", "gauss", ",", "hamming", ",", "hanning", ",", "kaiser", ",", "nuttall", ",", "rectangular", ",", "rosenbergGlottalPulse", ",", "trapezoid", ",", "tukey", ",", "welch" ],
					"maxclass" : "umenu",
					"numinlets" : 1,
					"numoutlets" : 3,
					"outlettype" : [ "int", "", "" ],
					"parameter_enable" : 0,
					"patching_rect" : [ 638.5, 288.5, 100.0, 20.0 ],
					"presentation" : 1,
					"presentation_rect" : [ 16.5, 70.0, 100.0, 20.0 ]
				}

			}
, 			{
				"box" : 				{
					"fontname" : "Arial",
					"fontsize" : 12.0,
					"id" : "obj-32",
					"maxclass" : "newobj",
					"numinlets" : 2,
					"numoutlets" : 2,
					"outlettype" : [ "", "" ],
					"patching_rect" : [ 398.5, 363.0, 139.0, 20.0 ],
					"text" : "substitute set setsymbol"
				}

			}
, 			{
				"box" : 				{
					"fontsize" : 30.0,
					"id" : "obj-12",
					"maxclass" : "live.menu",
					"numinlets" : 1,
					"numoutlets" : 3,
					"outlettype" : [ "", "", "float" ],
					"parameter_enable" : 1,
					"patching_rect" : [ 398.5, 280.0, 70.0, 37.0 ],
					"pictures" : [ "linear.svg", "easeInBack.svg", "easeInOutBack.svg", "easeOutBack.svg", "easeInBounce.svg", "easeInOutBounce.svg", "easeOutBounce.svg", "easeInCircular.svg", "easeInOutCircular.svg", "easeOutCircular.svg", "easeInCubic.svg", "easeInOutCubic.svg", "easeOutCubic.svg", "easeInElastic.svg", "easeInOutElastic.svg", "easeOutElastic.svg", "easeInExponential.svg", "easeInOutExponential.svg", "easeOutExponential.svg", "easeInQuadratic.svg", "easeInOutQuadratic.svg", "easeOutQuadratic.svg", "easeInQuartic.svg", "easeInOutQuartic.svg", "easeOutQuartic.svg", "easeInQuintic.svg", "easeInOutQuintic.svg", "easeOutQuintic.svg", "easeInSine.svg", "easeInOutSine.svg", "easeOutSine.svg", "exponential.svg", "freehand.svg", "logarithm.svg", "lowpass.svg", "power.svg", "smoothPolynomial.svg", "tanh.svg", "bartlett.svg", "blackman.svg", "blackmanHarris.svg", "expodec.svg", "gauss.svg", "hamming.svg", "hanning.svg", "kaiser.svg", "nuttall.svg", "rectangular.svg", "rosenbergGlottalPulse.svg", "trapezoid.svg", "tukey.svg", "welch.svg" ],
					"presentation" : 1,
					"presentation_rect" : [ 9.5, 26.0, 54.0, 37.0 ],
					"saved_attribute_attributes" : 					{
						"valueof" : 						{
							"parameter_longname" : "live.menu[2]",
							"parameter_shortname" : "live.menu",
							"parameter_type" : 2,
							"parameter_enum" : [ "linear", "easeInBack", "easeInOutBack", "easeOutBack", "easeInBounce", "easeInOutBounce", "easeOutBounce", "easeInCircular", "easeInOutCircular", "easeOutCircular", "easeInCubic", "easeInOutCubic", "easeOutCubic", "easeInElastic", "easeInOutElastic", "easeOutElastic", "easeInExponential", "easeInOutExponential", "easeOutExponential", "easeInQuadratic", "easeInOutQuadratic", "easeOutQuadratic", "easeInQuartic", "easeInOutQuartic", "easeOutQuartic", "easeInQuintic", "easeInOutQuintic", "easeOutQuintic", "easeInSine", "easeInOutSine", "easeOutSine", "exponential", "freehand", "logarithm", "lowpass", "power", "smoothPolynomial", "tanh", "bartlett", "blackman", "blackmanHarris", "expodec", "gauss", "hamming", "hanning", "kaiser", "nuttall", "rectangular", "rosenbergGlottalPulse", "trapezoid", "tukey", "welch" ]
						}

					}
,
					"usepicture" : 1,
					"varname" : "live.menu[1]"
				}

			}
, 			{
				"box" : 				{
					"fontname" : "Arial",
					"fontsize" : 12.0,
					"id" : "obj-5",
					"maxclass" : "newobj",
					"numinlets" : 1,
					"numoutlets" : 4,
					"outlettype" : [ "", "", "", "" ],
					"patching_rect" : [ 398.5, 330.5, 207.0, 20.0 ],
					"text" : "j.remote lfo:ramp/function function_ui"
				}

			}
, 			{
				"box" : 				{
					"background" : 1,
					"id" : "obj-4",
					"maxclass" : "j.ui",
					"numinlets" : 1,
					"numoutlets" : 1,
					"outlettype" : [ "" ],
					"presentation" : 1,
					"presentation_rect" : [ 0.0, 0.0, 300.0, 105.0 ],
					"text" : "/lfo.1"
				}

			}
 ],
		"lines" : [ 			{
				"patchline" : 				{
					"destination" : [ "obj-10", 1 ],
					"disabled" : 0,
					"hidden" : 0,
					"source" : [ "obj-1", 1 ]
				}

			}
, 			{
				"patchline" : 				{
					"destination" : [ "obj-6", 0 ],
					"disabled" : 0,
					"hidden" : 0,
					"source" : [ "obj-11", 0 ]
				}

			}
, 			{
				"patchline" : 				{
					"destination" : [ "obj-5", 0 ],
					"disabled" : 0,
					"hidden" : 0,
					"source" : [ "obj-12", 1 ]
				}

			}
, 			{
				"patchline" : 				{
					"destination" : [ "obj-1", 0 ],
					"disabled" : 0,
					"hidden" : 0,
					"source" : [ "obj-14", 0 ]
				}

			}
, 			{
				"patchline" : 				{
					"destination" : [ "obj-2", 0 ],
					"disabled" : 0,
					"hidden" : 0,
					"source" : [ "obj-3", 0 ]
				}

			}
, 			{
				"patchline" : 				{
					"destination" : [ "obj-12", 0 ],
					"disabled" : 0,
					"hidden" : 0,
					"midpoints" : [ 408.0, 395.0, 390.0, 395.0, 390.0, 269.0, 408.0, 269.0 ],
					"source" : [ "obj-32", 0 ]
				}

			}
, 			{
				"patchline" : 				{
					"destination" : [ "obj-34", 0 ],
					"disabled" : 0,
					"hidden" : 0,
					"source" : [ "obj-33", 1 ]
				}

			}
, 			{
				"patchline" : 				{
					"destination" : [ "obj-33", 0 ],
					"disabled" : 0,
					"hidden" : 0,
					"midpoints" : [ 648.0, 363.5, 627.0, 363.5, 627.0, 277.5, 648.0, 277.5 ],
					"source" : [ "obj-34", 0 ]
				}

			}
, 			{
				"patchline" : 				{
					"destination" : [ "obj-32", 0 ],
					"disabled" : 0,
					"hidden" : 0,
					"source" : [ "obj-5", 0 ]
				}

			}
, 			{
				"patchline" : 				{
					"destination" : [ "obj-11", 0 ],
					"disabled" : 0,
					"hidden" : 0,
					"source" : [ "obj-6", 0 ]
				}

			}
, 			{
				"patchline" : 				{
					"destination" : [ "obj-9", 0 ],
					"disabled" : 0,
					"hidden" : 0,
					"source" : [ "obj-7", 0 ]
				}

			}
, 			{
				"patchline" : 				{
					"destination" : [ "obj-7", 0 ],
					"disabled" : 0,
					"hidden" : 0,
					"source" : [ "obj-9", 0 ]
				}

			}
 ]
	}

}
