{
	"patcher" : 	{
		"fileversion" : 1,
		"appversion" : 		{
			"major" : 6,
			"minor" : 1,
			"revision" : 10,
			"architecture" : "x86"
		}
,
		"rect" : [ 25.0, 69.0, 640.0, 480.0 ],
		"bglocked" : 0,
		"openinpresentation" : 0,
		"default_fontsize" : 12.0,
		"default_fontface" : 0,
		"default_fontname" : "Arial",
		"gridonopen" : 0,
		"gridsize" : [ 8.0, 8.0 ],
		"gridsnaponopen" : 0,
		"statusbarvisible" : 2,
		"toolbarvisible" : 1,
		"boxanimatetime" : 200,
		"imprint" : 0,
		"enablehscroll" : 1,
		"enablevscroll" : 1,
		"devicewidth" : 0.0,
		"description" : "",
		"digest" : "",
		"tags" : "",
		"boxes" : [ 			{
				"box" : 				{
					"fontname" : "Arial",
					"fontsize" : 12.0,
					"id" : "obj-4",
					"maxclass" : "newobj",
					"numinlets" : 1,
					"numoutlets" : 1,
					"outlettype" : [ "" ],
					"patching_rect" : [ 180.0, 273.0, 91.0, 20.0 ],
					"text" : "prepend output"
				}

			}
, 			{
				"box" : 				{
					"fontname" : "Arial",
					"fontsize" : 12.0,
					"id" : "obj-3",
					"maxclass" : "newobj",
					"numinlets" : 1,
					"numoutlets" : 2,
					"outlettype" : [ "", "" ],
					"patching_rect" : [ 295.0, 177.0, 68.0, 20.0 ],
					"text" : "unpack s s"
				}

			}
, 			{
				"box" : 				{
					"fontname" : "Arial",
					"fontsize" : 12.0,
					"id" : "obj-2",
					"maxclass" : "newobj",
					"numinlets" : 1,
					"numoutlets" : 2,
					"outlettype" : [ "", "" ],
					"patching_rect" : [ 295.0, 144.0, 74.0, 20.0 ],
					"text" : "patcherargs"
				}

			}
, 			{
				"box" : 				{
					"fontname" : "Arial",
					"fontsize" : 12.0,
					"id" : "obj-9",
					"maxclass" : "newobj",
					"numinlets" : 0,
					"numoutlets" : 1,
					"outlettype" : [ "" ],
					"patching_rect" : [ 180.0, 179.0, 83.0, 20.0 ],
					"text" : "j.initialized #1"
				}

			}
, 			{
				"box" : 				{
					"fontname" : "Arial",
					"fontsize" : 12.0,
					"id" : "obj-10",
					"maxclass" : "message",
					"numinlets" : 2,
					"numoutlets" : 1,
					"outlettype" : [ "" ],
					"patching_rect" : [ 180.0, 232.0, 89.0, 18.0 ],
					"text" : "/paintbrush.1/x"
				}

			}
, 			{
				"box" : 				{
					"annotation" : "edit a one to one data mapping",
					"fontname" : "Arial",
					"fontsize" : 12.0,
					"id" : "obj-1",
					"maxclass" : "newobj",
					"numinlets" : 1,
					"numoutlets" : 2,
					"outlettype" : [ "", "" ],
					"patching_rect" : [ 180.0, 309.0, 103.0, 20.0 ],
					"text" : "mapper.model #1"
				}

			}
 ],
		"lines" : [ 			{
				"patchline" : 				{
					"destination" : [ "obj-4", 0 ],
					"disabled" : 0,
					"hidden" : 0,
					"source" : [ "obj-10", 0 ]
				}

			}
, 			{
				"patchline" : 				{
					"destination" : [ "obj-3", 0 ],
					"disabled" : 0,
					"hidden" : 0,
					"source" : [ "obj-2", 0 ]
				}

			}
, 			{
				"patchline" : 				{
					"destination" : [ "obj-10", 1 ],
					"disabled" : 0,
					"hidden" : 0,
					"source" : [ "obj-3", 1 ]
				}

			}
, 			{
				"patchline" : 				{
					"destination" : [ "obj-1", 0 ],
					"disabled" : 0,
					"hidden" : 0,
					"source" : [ "obj-4", 0 ]
				}

			}
, 			{
				"patchline" : 				{
					"destination" : [ "obj-10", 0 ],
					"disabled" : 0,
					"hidden" : 0,
					"source" : [ "obj-9", 0 ]
				}

			}
 ],
		"dependency_cache" : [ 			{
				"name" : "mapper.model.maxpat",
				"bootpath" : "/Users/leon_mb/Documents/Max/Packages/Jamoma/patchers/modules/data/mapper",
				"patcherrelativepath" : "../Documents/Max/Packages/Jamoma/patchers/modules/data/mapper",
				"type" : "JSON",
				"implicit" : 1
			}
, 			{
				"name" : "j.initialized.maxpat",
				"bootpath" : "/Users/leon_mb/Documents/Max/Packages/Jamoma/patchers/components/data/initialized",
				"patcherrelativepath" : "../Documents/Max/Packages/Jamoma/patchers/components/data/initialized",
				"type" : "JSON",
				"implicit" : 1
			}
, 			{
				"name" : "j.parameter.mxo",
				"type" : "iLaX"
			}
, 			{
				"name" : "j.model.mxo",
				"type" : "iLaX"
			}
, 			{
				"name" : "j.map.mxo",
				"type" : "iLaX"
			}
, 			{
				"name" : "j.receive.mxo",
				"type" : "iLaX"
			}
, 			{
				"name" : "j.parameter_array.mxo",
				"type" : "iLaX"
			}
, 			{
				"name" : "j.send.mxo",
				"type" : "iLaX"
			}
, 			{
				"name" : "j.return.mxo",
				"type" : "iLaX"
			}
, 			{
				"name" : "j.init.mxo",
				"type" : "iLaX"
			}
, 			{
				"name" : "j.in.mxo",
				"type" : "iLaX"
			}
, 			{
				"name" : "j.out.mxo",
				"type" : "iLaX"
			}
 ]
	}

}
