{
	"patcher" : 	{
		"fileversion" : 1,
		"appversion" : 		{
			"major" : 6,
			"minor" : 1,
			"revision" : 9,
			"architecture" : "x86"
		}
,
		"rect" : [ 576.0, 58.0, 942.0, 964.0 ],
		"bglocked" : 0,
		"openinpresentation" : 0,
		"default_fontsize" : 12.0,
		"default_fontface" : 0,
		"default_fontname" : "Arial",
		"gridonopen" : 0,
		"gridsize" : [ 15.0, 15.0 ],
		"gridsnaponopen" : 0,
		"statusbarvisible" : 2,
		"toolbarvisible" : 1,
		"boxanimatetime" : 200,
		"imprint" : 0,
		"enablehscroll" : 1,
		"enablevscroll" : 1,
		"devicewidth" : 0.0,
		"description" : "",
		"digest" : "",
		"tags" : "",
		"boxes" : [ 			{
				"box" : 				{
					"fontname" : "Arial",
					"fontsize" : 12.0,
					"id" : "obj-72",
					"maxclass" : "newobj",
					"numinlets" : 1,
					"numoutlets" : 1,
					"outlettype" : [ "audio.connect" ],
					"patcher" : 					{
						"fileversion" : 1,
						"appversion" : 						{
							"major" : 6,
							"minor" : 1,
							"revision" : 9,
							"architecture" : "x86"
						}
,
						"rect" : [ 29.0, 69.0, 640.0, 480.0 ],
						"bglocked" : 0,
						"openinpresentation" : 0,
						"default_fontsize" : 12.0,
						"default_fontface" : 0,
						"default_fontname" : "Arial",
						"gridonopen" : 0,
						"gridsize" : [ 15.0, 15.0 ],
						"gridsnaponopen" : 0,
						"statusbarvisible" : 2,
						"toolbarvisible" : 1,
						"boxanimatetime" : 200,
						"imprint" : 0,
						"enablehscroll" : 1,
						"enablevscroll" : 1,
						"devicewidth" : 0.0,
						"description" : "",
						"digest" : "",
						"tags" : "",
						"boxes" : [ 							{
								"box" : 								{
									"comment" : "",
									"id" : "obj-71",
									"maxclass" : "inlet",
									"numinlets" : 0,
									"numoutlets" : 1,
									"outlettype" : [ "audio.connect" ],
									"patching_rect" : [ 412.066681, 83.0, 25.0, 25.0 ]
								}

							}
, 							{
								"box" : 								{
									"fontname" : "Arial",
									"fontsize" : 12.0,
									"id" : "obj-70",
									"maxclass" : "newobj",
									"numinlets" : 1,
									"numoutlets" : 5,
									"outlettype" : [ "signal", "signal", "signal", "signal", "" ],
									"patching_rect" : [ 412.066681, 167.0, 73.0, 20.0 ],
									"text" : "j.unpack= 4"
								}

							}
, 							{
								"box" : 								{
									"comment" : "",
									"id" : "obj-69",
									"maxclass" : "outlet",
									"numinlets" : 1,
									"numoutlets" : 0,
									"patching_rect" : [ 428.0, 416.0, 25.0, 25.0 ]
								}

							}
, 							{
								"box" : 								{
									"fontname" : "Arial",
									"fontsize" : 12.0,
									"id" : "obj-68",
									"maxclass" : "newobj",
									"numinlets" : 4,
									"numoutlets" : 2,
									"outlettype" : [ "audio.connect", "" ],
									"patching_rect" : [ 428.0, 382.0, 59.5, 20.0 ],
									"text" : "j.pack= 4"
								}

							}
, 							{
								"box" : 								{
									"annotation" : "Spectral shifting with feedback",
									"fontname" : "Arial",
									"fontsize" : 12.0,
									"id" : "obj-67",
									"maxclass" : "newobj",
									"numinlets" : 2,
									"numoutlets" : 3,
									"outlettype" : [ "signal", "signal", "" ],
									"patching_rect" : [ 629.06665, 249.0, 180.0, 20.0 ],
									"text" : "spectral_shift~.model spectral.2"
								}

							}
, 							{
								"box" : 								{
									"annotation" : "Spectral shifting with feedback",
									"fontname" : "Arial",
									"fontsize" : 12.0,
									"id" : "obj-66",
									"maxclass" : "newobj",
									"numinlets" : 2,
									"numoutlets" : 3,
									"outlettype" : [ "signal", "signal", "" ],
									"patching_rect" : [ 412.066681, 249.0, 180.0, 20.0 ],
									"text" : "spectral_shift~.model spectral.1"
								}

							}
 ],
						"lines" : [ 							{
								"patchline" : 								{
									"destination" : [ "obj-68", 1 ],
									"disabled" : 0,
									"hidden" : 0,
									"source" : [ "obj-66", 1 ]
								}

							}
, 							{
								"patchline" : 								{
									"destination" : [ "obj-68", 0 ],
									"disabled" : 0,
									"hidden" : 0,
									"source" : [ "obj-66", 0 ]
								}

							}
, 							{
								"patchline" : 								{
									"destination" : [ "obj-68", 3 ],
									"disabled" : 0,
									"hidden" : 0,
									"source" : [ "obj-67", 1 ]
								}

							}
, 							{
								"patchline" : 								{
									"destination" : [ "obj-68", 2 ],
									"disabled" : 0,
									"hidden" : 0,
									"source" : [ "obj-67", 0 ]
								}

							}
, 							{
								"patchline" : 								{
									"destination" : [ "obj-69", 0 ],
									"disabled" : 0,
									"hidden" : 0,
									"source" : [ "obj-68", 0 ]
								}

							}
, 							{
								"patchline" : 								{
									"destination" : [ "obj-66", 1 ],
									"disabled" : 0,
									"hidden" : 0,
									"source" : [ "obj-70", 1 ]
								}

							}
, 							{
								"patchline" : 								{
									"destination" : [ "obj-66", 0 ],
									"disabled" : 0,
									"hidden" : 0,
									"source" : [ "obj-70", 0 ]
								}

							}
, 							{
								"patchline" : 								{
									"destination" : [ "obj-67", 1 ],
									"disabled" : 0,
									"hidden" : 0,
									"source" : [ "obj-70", 3 ]
								}

							}
, 							{
								"patchline" : 								{
									"destination" : [ "obj-67", 0 ],
									"disabled" : 0,
									"hidden" : 0,
									"source" : [ "obj-70", 2 ]
								}

							}
, 							{
								"patchline" : 								{
									"destination" : [ "obj-70", 0 ],
									"disabled" : 0,
									"hidden" : 0,
									"source" : [ "obj-71", 0 ]
								}

							}
 ]
					}
,
					"patching_rect" : [ 83.0, 269.666656, 91.0, 20.0 ],
					"saved_object_attributes" : 					{
						"default_fontface" : 0,
						"default_fontname" : "Arial",
						"default_fontsize" : 12.0,
						"description" : "",
						"digest" : "",
						"fontface" : 0,
						"fontname" : "Arial",
						"fontsize" : 12.0,
						"globalpatchername" : "",
						"tags" : ""
					}
,
					"text" : "p spectral_shift"
				}

			}
, 			{
				"box" : 				{
					"fontname" : "Arial",
					"fontsize" : 12.0,
					"id" : "obj-65",
					"maxclass" : "newobj",
					"numinlets" : 1,
					"numoutlets" : 5,
					"outlettype" : [ "audio.connect", "audio.connect", "audio.connect", "audio.connect", "" ],
					"patching_rect" : [ 31.5, 399.0, 137.0, 20.0 ],
					"text" : "j.split= 4 @groups 8 4 4"
				}

			}
, 			{
				"box" : 				{
					"fontname" : "Arial",
					"fontsize" : 12.0,
					"id" : "obj-62",
					"maxclass" : "newobj",
					"numinlets" : 1,
					"numoutlets" : 2,
					"outlettype" : [ "audio.connect", "" ],
					"patching_rect" : [ 31.5, 352.0, 150.0, 20.0 ],
					"text" : "j.mixer= @numOutputs 20"
				}

			}
, 			{
				"box" : 				{
					"fontname" : "Arial",
					"fontsize" : 12.0,
					"id" : "obj-61",
					"maxclass" : "newobj",
					"numinlets" : 0,
					"numoutlets" : 1,
					"outlettype" : [ "audio.connect" ],
					"patcher" : 					{
						"fileversion" : 1,
						"appversion" : 						{
							"major" : 6,
							"minor" : 1,
							"revision" : 9,
							"architecture" : "x86"
						}
,
						"rect" : [ 29.0, 69.0, 1022.0, 478.0 ],
						"bglocked" : 0,
						"openinpresentation" : 0,
						"default_fontsize" : 12.0,
						"default_fontface" : 0,
						"default_fontname" : "Arial",
						"gridonopen" : 0,
						"gridsize" : [ 15.0, 15.0 ],
						"gridsnaponopen" : 0,
						"statusbarvisible" : 2,
						"toolbarvisible" : 1,
						"boxanimatetime" : 200,
						"imprint" : 0,
						"enablehscroll" : 1,
						"enablevscroll" : 1,
						"devicewidth" : 0.0,
						"description" : "",
						"digest" : "",
						"tags" : "",
						"boxes" : [ 							{
								"box" : 								{
									"annotation" : "none",
									"fontname" : "Arial",
									"fontsize" : 12.0,
									"id" : "obj-8",
									"maxclass" : "newobj",
									"numinlets" : 2,
									"numoutlets" : 1,
									"outlettype" : [ "" ],
									"patching_rect" : [ 647.0, 225.0, 142.0, 20.0 ],
									"text" : "analyzer~.model percu.3"
								}

							}
, 							{
								"box" : 								{
									"annotation" : "none",
									"fontname" : "Arial",
									"fontsize" : 12.0,
									"id" : "obj-9",
									"maxclass" : "newobj",
									"numinlets" : 2,
									"numoutlets" : 1,
									"outlettype" : [ "" ],
									"patching_rect" : [ 602.0, 202.0, 142.0, 20.0 ],
									"text" : "analyzer~.model percu.2"
								}

							}
, 							{
								"box" : 								{
									"annotation" : "none",
									"fontname" : "Arial",
									"fontsize" : 12.0,
									"id" : "obj-10",
									"maxclass" : "newobj",
									"numinlets" : 2,
									"numoutlets" : 1,
									"outlettype" : [ "" ],
									"patching_rect" : [ 557.0, 179.0, 142.0, 20.0 ],
									"text" : "analyzer~.model percu.1"
								}

							}
, 							{
								"box" : 								{
									"annotation" : "none",
									"fontname" : "Arial",
									"fontsize" : 12.0,
									"id" : "obj-5",
									"maxclass" : "newobj",
									"numinlets" : 2,
									"numoutlets" : 1,
									"outlettype" : [ "" ],
									"patching_rect" : [ 512.0, 225.0, 150.0, 20.0 ],
									"text" : "analyzer~.model groupe.3"
								}

							}
, 							{
								"box" : 								{
									"annotation" : "none",
									"fontname" : "Arial",
									"fontsize" : 12.0,
									"id" : "obj-6",
									"maxclass" : "newobj",
									"numinlets" : 2,
									"numoutlets" : 1,
									"outlettype" : [ "" ],
									"patching_rect" : [ 467.0, 202.0, 150.0, 20.0 ],
									"text" : "analyzer~.model groupe.2"
								}

							}
, 							{
								"box" : 								{
									"annotation" : "none",
									"fontname" : "Arial",
									"fontsize" : 12.0,
									"id" : "obj-7",
									"maxclass" : "newobj",
									"numinlets" : 2,
									"numoutlets" : 1,
									"outlettype" : [ "" ],
									"patching_rect" : [ 422.0, 179.0, 150.0, 20.0 ],
									"text" : "analyzer~.model groupe.1"
								}

							}
, 							{
								"box" : 								{
									"annotation" : "none",
									"fontname" : "Arial",
									"fontsize" : 12.0,
									"id" : "obj-4",
									"maxclass" : "newobj",
									"numinlets" : 2,
									"numoutlets" : 1,
									"outlettype" : [ "" ],
									"patching_rect" : [ 377.0, 225.0, 134.0, 20.0 ],
									"text" : "analyzer~.model solo.3"
								}

							}
, 							{
								"box" : 								{
									"annotation" : "none",
									"fontname" : "Arial",
									"fontsize" : 12.0,
									"id" : "obj-3",
									"maxclass" : "newobj",
									"numinlets" : 2,
									"numoutlets" : 1,
									"outlettype" : [ "" ],
									"patching_rect" : [ 332.0, 202.0, 134.0, 20.0 ],
									"text" : "analyzer~.model solo.2"
								}

							}
, 							{
								"box" : 								{
									"annotation" : "none",
									"fontname" : "Arial",
									"fontsize" : 12.0,
									"id" : "obj-1",
									"maxclass" : "newobj",
									"numinlets" : 2,
									"numoutlets" : 1,
									"outlettype" : [ "" ],
									"patching_rect" : [ 287.0, 179.0, 134.0, 20.0 ],
									"text" : "analyzer~.model solo.1"
								}

							}
, 							{
								"box" : 								{
									"fontname" : "Arial",
									"fontsize" : 12.0,
									"id" : "obj-59",
									"maxclass" : "newobj",
									"numinlets" : 9,
									"numoutlets" : 2,
									"outlettype" : [ "audio.connect", "" ],
									"patching_rect" : [ 50.0, 169.0, 127.0, 20.0 ],
									"text" : "j.pack= 9"
								}

							}
, 							{
								"box" : 								{
									"fontname" : "Arial",
									"fontsize" : 12.0,
									"id" : "obj-38",
									"maxclass" : "newobj",
									"numinlets" : 1,
									"numoutlets" : 9,
									"outlettype" : [ "signal", "signal", "signal", "signal", "signal", "signal", "signal", "signal", "signal" ],
									"patching_rect" : [ 284.333344, 45.0, 381.666656, 20.0 ],
									"text" : "adc~ 1 2 3 4 5 6 7 8 9"
								}

							}
, 							{
								"box" : 								{
									"comment" : "",
									"id" : "obj-60",
									"maxclass" : "outlet",
									"numinlets" : 1,
									"numoutlets" : 0,
									"patching_rect" : [ 50.0, 249.0, 25.0, 25.0 ]
								}

							}
 ],
						"lines" : [ 							{
								"patchline" : 								{
									"destination" : [ "obj-1", 0 ],
									"disabled" : 0,
									"hidden" : 0,
									"source" : [ "obj-38", 0 ]
								}

							}
, 							{
								"patchline" : 								{
									"destination" : [ "obj-10", 0 ],
									"disabled" : 0,
									"hidden" : 0,
									"source" : [ "obj-38", 6 ]
								}

							}
, 							{
								"patchline" : 								{
									"destination" : [ "obj-3", 0 ],
									"disabled" : 0,
									"hidden" : 0,
									"source" : [ "obj-38", 1 ]
								}

							}
, 							{
								"patchline" : 								{
									"destination" : [ "obj-4", 0 ],
									"disabled" : 0,
									"hidden" : 0,
									"source" : [ "obj-38", 2 ]
								}

							}
, 							{
								"patchline" : 								{
									"destination" : [ "obj-5", 0 ],
									"disabled" : 0,
									"hidden" : 0,
									"source" : [ "obj-38", 5 ]
								}

							}
, 							{
								"patchline" : 								{
									"destination" : [ "obj-59", 8 ],
									"disabled" : 0,
									"hidden" : 0,
									"source" : [ "obj-38", 8 ]
								}

							}
, 							{
								"patchline" : 								{
									"destination" : [ "obj-59", 7 ],
									"disabled" : 0,
									"hidden" : 0,
									"source" : [ "obj-38", 7 ]
								}

							}
, 							{
								"patchline" : 								{
									"destination" : [ "obj-59", 6 ],
									"disabled" : 0,
									"hidden" : 0,
									"source" : [ "obj-38", 6 ]
								}

							}
, 							{
								"patchline" : 								{
									"destination" : [ "obj-59", 5 ],
									"disabled" : 0,
									"hidden" : 0,
									"source" : [ "obj-38", 5 ]
								}

							}
, 							{
								"patchline" : 								{
									"destination" : [ "obj-59", 4 ],
									"disabled" : 0,
									"hidden" : 0,
									"source" : [ "obj-38", 4 ]
								}

							}
, 							{
								"patchline" : 								{
									"destination" : [ "obj-59", 3 ],
									"disabled" : 0,
									"hidden" : 0,
									"source" : [ "obj-38", 3 ]
								}

							}
, 							{
								"patchline" : 								{
									"destination" : [ "obj-59", 2 ],
									"disabled" : 0,
									"hidden" : 0,
									"source" : [ "obj-38", 2 ]
								}

							}
, 							{
								"patchline" : 								{
									"destination" : [ "obj-59", 1 ],
									"disabled" : 0,
									"hidden" : 0,
									"source" : [ "obj-38", 1 ]
								}

							}
, 							{
								"patchline" : 								{
									"destination" : [ "obj-59", 0 ],
									"disabled" : 0,
									"hidden" : 0,
									"source" : [ "obj-38", 0 ]
								}

							}
, 							{
								"patchline" : 								{
									"destination" : [ "obj-6", 0 ],
									"disabled" : 0,
									"hidden" : 0,
									"source" : [ "obj-38", 4 ]
								}

							}
, 							{
								"patchline" : 								{
									"destination" : [ "obj-7", 0 ],
									"disabled" : 0,
									"hidden" : 0,
									"source" : [ "obj-38", 3 ]
								}

							}
, 							{
								"patchline" : 								{
									"destination" : [ "obj-8", 0 ],
									"disabled" : 0,
									"hidden" : 0,
									"source" : [ "obj-38", 8 ]
								}

							}
, 							{
								"patchline" : 								{
									"destination" : [ "obj-9", 0 ],
									"disabled" : 0,
									"hidden" : 0,
									"source" : [ "obj-38", 7 ]
								}

							}
, 							{
								"patchline" : 								{
									"destination" : [ "obj-60", 0 ],
									"disabled" : 0,
									"hidden" : 0,
									"source" : [ "obj-59", 0 ]
								}

							}
 ]
					}
,
					"patching_rect" : [ 31.5, 155.0, 92.0, 20.0 ],
					"saved_object_attributes" : 					{
						"default_fontface" : 0,
						"default_fontname" : "Arial",
						"default_fontsize" : 12.0,
						"description" : "",
						"digest" : "",
						"fontface" : 0,
						"fontname" : "Arial",
						"fontsize" : 12.0,
						"globalpatchername" : "",
						"tags" : ""
					}
,
					"text" : "p adc_analyzer"
				}

			}
, 			{
				"box" : 				{
					"fontname" : "Arial",
					"fontsize" : 12.0,
					"id" : "obj-58",
					"maxclass" : "newobj",
					"numinlets" : 1,
					"numoutlets" : 1,
					"outlettype" : [ "audio.connect" ],
					"patcher" : 					{
						"fileversion" : 1,
						"appversion" : 						{
							"major" : 6,
							"minor" : 1,
							"revision" : 9,
							"architecture" : "x86"
						}
,
						"rect" : [ 29.0, 69.0, 640.0, 480.0 ],
						"bglocked" : 0,
						"openinpresentation" : 0,
						"default_fontsize" : 12.0,
						"default_fontface" : 0,
						"default_fontname" : "Arial",
						"gridonopen" : 0,
						"gridsize" : [ 15.0, 15.0 ],
						"gridsnaponopen" : 0,
						"statusbarvisible" : 2,
						"toolbarvisible" : 1,
						"boxanimatetime" : 200,
						"imprint" : 0,
						"enablehscroll" : 1,
						"enablevscroll" : 1,
						"devicewidth" : 0.0,
						"description" : "",
						"digest" : "",
						"tags" : "",
						"boxes" : [ 							{
								"box" : 								{
									"comment" : "",
									"id" : "obj-4",
									"maxclass" : "inlet",
									"numinlets" : 0,
									"numoutlets" : 1,
									"outlettype" : [ "audio.connect" ],
									"patching_rect" : [ 50.0, 46.0, 25.0, 25.0 ]
								}

							}
, 							{
								"box" : 								{
									"fontname" : "Arial",
									"fontsize" : 12.0,
									"id" : "obj-3",
									"maxclass" : "newobj",
									"numinlets" : 1,
									"numoutlets" : 9,
									"outlettype" : [ "signal", "signal", "signal", "signal", "signal", "signal", "signal", "signal", "" ],
									"patching_rect" : [ 50.0, 86.0, 127.0, 20.0 ],
									"text" : "j.unpack= 8"
								}

							}
, 							{
								"box" : 								{
									"fontname" : "Arial",
									"fontsize" : 12.0,
									"id" : "obj-1",
									"maxclass" : "newobj",
									"numinlets" : 8,
									"numoutlets" : 2,
									"outlettype" : [ "audio.connect", "" ],
									"patching_rect" : [ 50.0, 343.0, 113.5, 20.0 ],
									"text" : "j.pack= 8"
								}

							}
, 							{
								"box" : 								{
									"annotation" : "none",
									"fontname" : "Arial",
									"fontsize" : 12.0,
									"id" : "obj-47",
									"maxclass" : "newobj",
									"numinlets" : 2,
									"numoutlets" : 2,
									"outlettype" : [ "signal", "" ],
									"patching_rect" : [ 148.0, 292.0, 119.0, 20.0 ],
									"text" : "buffer.model buffer.8"
								}

							}
, 							{
								"box" : 								{
									"annotation" : "none",
									"fontname" : "Arial",
									"fontsize" : 12.0,
									"id" : "obj-46",
									"maxclass" : "newobj",
									"numinlets" : 2,
									"numoutlets" : 2,
									"outlettype" : [ "signal", "" ],
									"patching_rect" : [ 134.0, 271.0, 119.0, 20.0 ],
									"text" : "buffer.model buffer.7"
								}

							}
, 							{
								"box" : 								{
									"annotation" : "none",
									"fontname" : "Arial",
									"fontsize" : 12.0,
									"id" : "obj-45",
									"maxclass" : "newobj",
									"numinlets" : 2,
									"numoutlets" : 2,
									"outlettype" : [ "signal", "" ],
									"patching_rect" : [ 120.0, 250.0, 119.0, 20.0 ],
									"text" : "buffer.model buffer.6"
								}

							}
, 							{
								"box" : 								{
									"annotation" : "none",
									"fontname" : "Arial",
									"fontsize" : 12.0,
									"id" : "obj-44",
									"maxclass" : "newobj",
									"numinlets" : 2,
									"numoutlets" : 2,
									"outlettype" : [ "signal", "" ],
									"patching_rect" : [ 106.0, 229.0, 119.0, 20.0 ],
									"text" : "buffer.model buffer.5"
								}

							}
, 							{
								"box" : 								{
									"annotation" : "none",
									"fontname" : "Arial",
									"fontsize" : 12.0,
									"id" : "obj-43",
									"maxclass" : "newobj",
									"numinlets" : 2,
									"numoutlets" : 2,
									"outlettype" : [ "signal", "" ],
									"patching_rect" : [ 92.0, 208.0, 119.0, 20.0 ],
									"text" : "buffer.model buffer.4"
								}

							}
, 							{
								"box" : 								{
									"annotation" : "none",
									"fontname" : "Arial",
									"fontsize" : 12.0,
									"id" : "obj-42",
									"maxclass" : "newobj",
									"numinlets" : 2,
									"numoutlets" : 2,
									"outlettype" : [ "signal", "" ],
									"patching_rect" : [ 78.0, 187.0, 119.0, 20.0 ],
									"text" : "buffer.model buffer.3"
								}

							}
, 							{
								"box" : 								{
									"annotation" : "none",
									"fontname" : "Arial",
									"fontsize" : 12.0,
									"id" : "obj-41",
									"maxclass" : "newobj",
									"numinlets" : 2,
									"numoutlets" : 2,
									"outlettype" : [ "signal", "" ],
									"patching_rect" : [ 64.0, 166.0, 119.0, 20.0 ],
									"text" : "buffer.model buffer.2"
								}

							}
, 							{
								"box" : 								{
									"annotation" : "none",
									"fontname" : "Arial",
									"fontsize" : 12.0,
									"id" : "obj-40",
									"maxclass" : "newobj",
									"numinlets" : 2,
									"numoutlets" : 2,
									"outlettype" : [ "signal", "" ],
									"patching_rect" : [ 50.0, 145.0, 119.0, 20.0 ],
									"text" : "buffer.model buffer.1"
								}

							}
, 							{
								"box" : 								{
									"comment" : "",
									"id" : "obj-50",
									"maxclass" : "outlet",
									"numinlets" : 1,
									"numoutlets" : 0,
									"patching_rect" : [ 50.0, 406.0, 25.0, 25.0 ]
								}

							}
 ],
						"lines" : [ 							{
								"patchline" : 								{
									"destination" : [ "obj-50", 0 ],
									"disabled" : 0,
									"hidden" : 0,
									"source" : [ "obj-1", 0 ]
								}

							}
, 							{
								"patchline" : 								{
									"destination" : [ "obj-40", 0 ],
									"disabled" : 0,
									"hidden" : 0,
									"source" : [ "obj-3", 0 ]
								}

							}
, 							{
								"patchline" : 								{
									"destination" : [ "obj-41", 0 ],
									"disabled" : 0,
									"hidden" : 0,
									"source" : [ "obj-3", 1 ]
								}

							}
, 							{
								"patchline" : 								{
									"destination" : [ "obj-42", 0 ],
									"disabled" : 0,
									"hidden" : 0,
									"source" : [ "obj-3", 2 ]
								}

							}
, 							{
								"patchline" : 								{
									"destination" : [ "obj-43", 0 ],
									"disabled" : 0,
									"hidden" : 0,
									"source" : [ "obj-3", 3 ]
								}

							}
, 							{
								"patchline" : 								{
									"destination" : [ "obj-44", 0 ],
									"disabled" : 0,
									"hidden" : 0,
									"source" : [ "obj-3", 4 ]
								}

							}
, 							{
								"patchline" : 								{
									"destination" : [ "obj-45", 0 ],
									"disabled" : 0,
									"hidden" : 0,
									"source" : [ "obj-3", 5 ]
								}

							}
, 							{
								"patchline" : 								{
									"destination" : [ "obj-46", 0 ],
									"disabled" : 0,
									"hidden" : 0,
									"source" : [ "obj-3", 6 ]
								}

							}
, 							{
								"patchline" : 								{
									"destination" : [ "obj-47", 0 ],
									"disabled" : 0,
									"hidden" : 0,
									"source" : [ "obj-3", 7 ]
								}

							}
, 							{
								"patchline" : 								{
									"destination" : [ "obj-3", 0 ],
									"disabled" : 0,
									"hidden" : 0,
									"source" : [ "obj-4", 0 ]
								}

							}
, 							{
								"patchline" : 								{
									"destination" : [ "obj-1", 0 ],
									"disabled" : 0,
									"hidden" : 0,
									"source" : [ "obj-40", 0 ]
								}

							}
, 							{
								"patchline" : 								{
									"destination" : [ "obj-1", 1 ],
									"disabled" : 0,
									"hidden" : 0,
									"source" : [ "obj-41", 0 ]
								}

							}
, 							{
								"patchline" : 								{
									"destination" : [ "obj-1", 2 ],
									"disabled" : 0,
									"hidden" : 0,
									"source" : [ "obj-42", 0 ]
								}

							}
, 							{
								"patchline" : 								{
									"destination" : [ "obj-1", 3 ],
									"disabled" : 0,
									"hidden" : 0,
									"source" : [ "obj-43", 0 ]
								}

							}
, 							{
								"patchline" : 								{
									"destination" : [ "obj-1", 4 ],
									"disabled" : 0,
									"hidden" : 0,
									"source" : [ "obj-44", 0 ]
								}

							}
, 							{
								"patchline" : 								{
									"destination" : [ "obj-1", 5 ],
									"disabled" : 0,
									"hidden" : 0,
									"source" : [ "obj-45", 0 ]
								}

							}
, 							{
								"patchline" : 								{
									"destination" : [ "obj-1", 6 ],
									"disabled" : 0,
									"hidden" : 0,
									"source" : [ "obj-46", 0 ]
								}

							}
, 							{
								"patchline" : 								{
									"destination" : [ "obj-1", 7 ],
									"disabled" : 0,
									"hidden" : 0,
									"source" : [ "obj-47", 0 ]
								}

							}
 ]
					}
,
					"patching_rect" : [ 45.0, 193.666672, 113.0, 20.0 ],
					"saved_object_attributes" : 					{
						"default_fontface" : 0,
						"default_fontname" : "Arial",
						"default_fontsize" : 12.0,
						"description" : "",
						"digest" : "",
						"fontface" : 0,
						"fontname" : "Arial",
						"fontsize" : 12.0,
						"globalpatchername" : "",
						"tags" : ""
					}
,
					"text" : "p buffer"
				}

			}
, 			{
				"box" : 				{
					"fontname" : "Arial",
					"fontsize" : 12.0,
					"id" : "obj-49",
					"maxclass" : "newobj",
					"numinlets" : 4,
					"numoutlets" : 2,
					"outlettype" : [ "audio.connect", "" ],
					"patching_rect" : [ 31.5, 304.0, 59.5, 20.0 ],
					"text" : "j.join= 4"
				}

			}
, 			{
				"box" : 				{
					"annotation" : "Stereo echo module.",
					"fontname" : "Arial",
					"fontsize" : 12.0,
					"id" : "obj-48",
					"maxclass" : "newobj",
					"numinlets" : 1,
					"numoutlets" : 2,
					"outlettype" : [ "", "" ],
					"patching_rect" : [ 58.0, 231.666672, 103.0, 20.0 ],
					"text" : "echo-4ch~.model"
				}

			}
 ],
		"lines" : [ 			{
				"patchline" : 				{
					"destination" : [ "obj-49", 2 ],
					"disabled" : 0,
					"hidden" : 0,
					"source" : [ "obj-48", 0 ]
				}

			}
, 			{
				"patchline" : 				{
					"destination" : [ "obj-62", 0 ],
					"disabled" : 0,
					"hidden" : 0,
					"source" : [ "obj-49", 0 ]
				}

			}
, 			{
				"patchline" : 				{
					"destination" : [ "obj-49", 1 ],
					"disabled" : 0,
					"hidden" : 0,
					"source" : [ "obj-58", 0 ]
				}

			}
, 			{
				"patchline" : 				{
					"destination" : [ "obj-49", 0 ],
					"disabled" : 0,
					"hidden" : 0,
					"source" : [ "obj-61", 0 ]
				}

			}
, 			{
				"patchline" : 				{
					"destination" : [ "obj-65", 0 ],
					"disabled" : 0,
					"hidden" : 0,
					"source" : [ "obj-62", 0 ]
				}

			}
, 			{
				"patchline" : 				{
					"destination" : [ "obj-48", 0 ],
					"disabled" : 0,
					"hidden" : 0,
					"midpoints" : [ 70.5, 449.0, 258.0, 449.0, 258.0, 222.0, 67.5, 222.0 ],
					"source" : [ "obj-65", 1 ]
				}

			}
, 			{
				"patchline" : 				{
					"destination" : [ "obj-58", 0 ],
					"disabled" : 0,
					"hidden" : 0,
					"midpoints" : [ 41.0, 468.0, 294.0, 468.0, 294.0, 179.0, 54.5, 179.0 ],
					"source" : [ "obj-65", 0 ]
				}

			}
, 			{
				"patchline" : 				{
					"destination" : [ "obj-72", 0 ],
					"disabled" : 0,
					"hidden" : 0,
					"midpoints" : [ 100.0, 431.0, 236.0, 431.0, 236.0, 262.0, 92.5, 262.0 ],
					"source" : [ "obj-65", 2 ]
				}

			}
, 			{
				"patchline" : 				{
					"destination" : [ "obj-49", 3 ],
					"disabled" : 0,
					"hidden" : 0,
					"source" : [ "obj-72", 0 ]
				}

			}
 ],
		"parameters" : 		{
			"obj-58::obj-47::obj-32" : [ "spat[12]", "spat", 0 ],
			"obj-58::obj-41::obj-19" : [ "harm[13]", "harm", 0 ],
			"obj-58::obj-44::obj-19" : [ "harm[7]", "harm", 0 ],
			"obj-58::obj-41::obj-32" : [ "spat[10]", "spat", 0 ],
			"obj-58::obj-43::obj-18" : [ "delay[6]", "delay", 0 ],
			"obj-58::obj-41::obj-18" : [ "delay[13]", "delay", 0 ],
			"obj-58::obj-42::obj-18" : [ "delay[9]", "delay", 0 ],
			"obj-58::obj-45::obj-19" : [ "harm[6]", "harm", 0 ],
			"obj-58::obj-45::obj-18" : [ "delay[7]", "delay", 0 ],
			"obj-58::obj-47::obj-19" : [ "harm[12]", "harm", 0 ],
			"obj-58::obj-46::obj-18" : [ "delay[5]", "delay", 0 ],
			"obj-58::obj-42::obj-32" : [ "spat[9]", "spat", 0 ],
			"obj-58::obj-45::obj-32" : [ "spat[6]", "spat", 0 ],
			"obj-58::obj-46::obj-19" : [ "harm[5]", "harm", 0 ],
			"obj-58::obj-44::obj-32" : [ "spat[7]", "spat", 0 ],
			"obj-58::obj-44::obj-18" : [ "delay[8]", "delay", 0 ],
			"obj-58::obj-43::obj-32" : [ "spat[8]", "spat", 0 ],
			"obj-58::obj-46::obj-32" : [ "spat[5]", "spat", 0 ],
			"obj-58::obj-42::obj-19" : [ "harm[9]", "harm", 0 ],
			"obj-58::obj-40::obj-19" : [ "harm[14]", "harm", 0 ],
			"obj-58::obj-43::obj-19" : [ "harm[8]", "harm", 0 ],
			"obj-58::obj-40::obj-18" : [ "delay[14]", "delay", 0 ],
			"obj-58::obj-47::obj-18" : [ "delay[12]", "delay", 0 ],
			"obj-58::obj-40::obj-32" : [ "spat[14]", "spat", 0 ]
		}
,
		"dependency_cache" : [ 			{
				"name" : "echo-4ch~.model.maxpat",
				"bootpath" : "/Users/LaFabrika/lib-src/InteracSon",
				"patcherrelativepath" : ".",
				"type" : "JSON",
				"implicit" : 1
			}
, 			{
				"name" : "limiter~.model.maxpat",
				"bootpath" : "/Users/LaFabrika/Documents/Max/Packages/Jamoma/patchers/modules/audio/stereo/Dynamics/limiter~",
				"patcherrelativepath" : "../../Documents/Max/Packages/Jamoma/patchers/modules/audio/stereo/Dynamics/limiter~",
				"type" : "JSON",
				"implicit" : 1
			}
, 			{
				"name" : "limiter.parametersAndMessages.maxpat",
				"bootpath" : "/Users/LaFabrika/Documents/Max/Packages/Jamoma/patchers/modules/audio/stereo/Dynamics/limiter~",
				"patcherrelativepath" : "../../Documents/Max/Packages/Jamoma/patchers/modules/audio/stereo/Dynamics/limiter~",
				"type" : "JSON",
				"implicit" : 1
			}
, 			{
				"name" : "filter~.model.maxpat",
				"bootpath" : "/Users/LaFabrika/Documents/Max/Packages/Jamoma/patchers/modules/audio/stereo/EQ/filter~",
				"patcherrelativepath" : "../../Documents/Max/Packages/Jamoma/patchers/modules/audio/stereo/EQ/filter~",
				"type" : "JSON",
				"implicit" : 1
			}
, 			{
				"name" : "j.octavebandwidth2q.maxpat",
				"bootpath" : "/Users/LaFabrika/Documents/Max/Packages/Jamoma/patchers/components/audio/octavebandwidth2q",
				"patcherrelativepath" : "../../Documents/Max/Packages/Jamoma/patchers/components/audio/octavebandwidth2q",
				"type" : "JSON",
				"implicit" : 1
			}
, 			{
				"name" : "j.q2octavebandwidth.maxpat",
				"bootpath" : "/Users/LaFabrika/Documents/Max/Packages/Jamoma/patchers/components/audio/q2octavebandwith",
				"patcherrelativepath" : "../../Documents/Max/Packages/Jamoma/patchers/components/audio/q2octavebandwith",
				"type" : "JSON",
				"implicit" : 1
			}
, 			{
				"name" : "buffer.model.maxpat",
				"bootpath" : "/Users/LaFabrika/lib-src/InteracSon",
				"patcherrelativepath" : ".",
				"type" : "JSON",
				"implicit" : 1
			}
, 			{
				"name" : "monspat4.maxpat",
				"bootpath" : "/Users/LaFabrika/lib-src/InteracSon",
				"patcherrelativepath" : ".",
				"type" : "JSON",
				"implicit" : 1
			}
, 			{
				"name" : "pan2S.maxpat",
				"bootpath" : "/Applications/Max 6.1/examples/spatialization/panning/lib",
				"patcherrelativepath" : "../../../../Applications/Max 6.1/examples/spatialization/panning/lib",
				"type" : "JSON",
				"implicit" : 1
			}
, 			{
				"name" : "pan4S.maxpat",
				"bootpath" : "/Applications/Max 6.1/examples/spatialization/panning/lib",
				"patcherrelativepath" : "../../../../Applications/Max 6.1/examples/spatialization/panning/lib",
				"type" : "JSON",
				"implicit" : 1
			}
, 			{
				"name" : "yafr2.maxpat",
				"bootpath" : "/Applications/Max 6.1/examples/effects/reverb/lib",
				"patcherrelativepath" : "../../../../Applications/Max 6.1/examples/effects/reverb/lib",
				"type" : "JSON",
				"implicit" : 1
			}
, 			{
				"name" : "analyzer~.model.maxpat",
				"bootpath" : "/Users/LaFabrika/lib-src/InteracSon",
				"patcherrelativepath" : ".",
				"type" : "JSON",
				"implicit" : 1
			}
, 			{
				"name" : "spectral_shift~.model.maxpat",
				"bootpath" : "/Users/LaFabrika/Documents/Max/Packages/Jamoma/patchers/modules/audio/stereo/Spectral/spectral_shift~",
				"patcherrelativepath" : "../../Documents/Max/Packages/Jamoma/patchers/modules/audio/stereo/Spectral/spectral_shift~",
				"type" : "JSON",
				"implicit" : 1
			}
, 			{
				"name" : "j.spectral_shift_voice~.maxpat",
				"bootpath" : "/Users/LaFabrika/Documents/Max/Packages/Jamoma/patchers/modules/audio/stereo/Spectral/spectral_shift~",
				"patcherrelativepath" : "../../Documents/Max/Packages/Jamoma/patchers/modules/audio/stereo/Spectral/spectral_shift~",
				"type" : "JSON",
				"implicit" : 1
			}
, 			{
				"name" : "j.parameter.mxo",
				"type" : "iLaX"
			}
, 			{
				"name" : "j.message.mxo",
				"type" : "iLaX"
			}
, 			{
				"name" : "j.model.mxo",
				"type" : "iLaX"
			}
, 			{
				"name" : "j.in~.mxo",
				"type" : "iLaX"
			}
, 			{
				"name" : "j.out~.mxo",
				"type" : "iLaX"
			}
, 			{
				"name" : "j.limiter~.mxo",
				"type" : "iLaX"
			}
, 			{
				"name" : "j.unit.mxo",
				"type" : "iLaX"
			}
, 			{
				"name" : "j.out=.mxo",
				"type" : "iLaX"
			}
, 			{
				"name" : "j.pack=.mxo",
				"type" : "iLaX"
			}
, 			{
				"name" : "j.in=.mxo",
				"type" : "iLaX"
			}
, 			{
				"name" : "j.unpack=.mxo",
				"type" : "iLaX"
			}
, 			{
				"name" : "j.join=.mxo",
				"type" : "iLaX"
			}
, 			{
				"name" : "j.return.mxo",
				"type" : "iLaX"
			}
, 			{
				"name" : "analyzer~.mxo",
				"type" : "iLaX"
			}
, 			{
				"name" : "j.oscinstance.mxo",
				"type" : "iLaX"
			}
, 			{
				"name" : "j.mixer=.mxo",
				"type" : "iLaX"
			}
, 			{
				"name" : "j.split=.mxo",
				"type" : "iLaX"
			}
 ]
	}

}
